<mxfile host="Electron" agent="Mozilla/5.0 (Macintosh; Intel Mac OS X 10_15_7) AppleWebKit/537.36 (KHTML, like Gecko) draw.io/28.0.6 Chrome/138.0.7204.100 Electron/37.2.3 Safari/537.36" version="28.0.6">
  <diagram name="第 1 页" id="9etGUtoTMnYea2v9Zrep">
    <mxGraphModel dx="1933" dy="674" grid="1" gridSize="10" guides="1" tooltips="1" connect="1" arrows="1" fold="1" page="1" pageScale="1" pageWidth="827" pageHeight="1169" math="0" shadow="0">
      <root>
        <mxCell id="0" />
        <mxCell id="1" parent="0" />
        <mxCell id="062NfB-SmRiyS5ICJQca-1" value="Open AI&lt;br&gt;Chat LLM" style="sketch=0;outlineConnect=0;fontColor=#232F3E;gradientColor=none;fillColor=#01A88D;strokeColor=none;dashed=0;verticalLabelPosition=bottom;verticalAlign=top;align=center;html=1;fontSize=12;fontStyle=0;aspect=fixed;pointerEvents=1;shape=mxgraph.aws4.sagemaker_model;" parent="1" vertex="1">
          <mxGeometry x="483" y="430" width="78" height="78" as="geometry" />
        </mxCell>
        <mxCell id="062NfB-SmRiyS5ICJQca-2" value="Open AI&lt;br&gt;Embedding Model" style="sketch=0;outlineConnect=0;fillColor=#FFB570;strokeColor=#d6b656;dashed=0;verticalLabelPosition=bottom;verticalAlign=top;align=center;html=1;fontSize=12;fontStyle=0;aspect=fixed;pointerEvents=1;shape=mxgraph.aws4.sagemaker_model;" parent="1" vertex="1">
          <mxGeometry x="483" y="710" width="78" height="78" as="geometry" />
        </mxCell>
        <mxCell id="khV0RcQAP9j46sfqYw1g-18" style="edgeStyle=orthogonalEdgeStyle;rounded=0;orthogonalLoop=1;jettySize=auto;html=1;entryX=0;entryY=0.5;entryDx=0;entryDy=0;" parent="1" source="062NfB-SmRiyS5ICJQca-3" target="khV0RcQAP9j46sfqYw1g-2" edge="1">
          <mxGeometry relative="1" as="geometry" />
        </mxCell>
        <mxCell id="khV0RcQAP9j46sfqYw1g-27" style="edgeStyle=orthogonalEdgeStyle;rounded=0;orthogonalLoop=1;jettySize=auto;html=1;" parent="1" source="062NfB-SmRiyS5ICJQca-3" target="khV0RcQAP9j46sfqYw1g-26" edge="1">
          <mxGeometry relative="1" as="geometry" />
        </mxCell>
        <mxCell id="khV0RcQAP9j46sfqYw1g-32" style="edgeStyle=orthogonalEdgeStyle;rounded=0;orthogonalLoop=1;jettySize=auto;html=1;" parent="1" source="062NfB-SmRiyS5ICJQca-3" target="khV0RcQAP9j46sfqYw1g-30" edge="1">
          <mxGeometry relative="1" as="geometry" />
        </mxCell>
        <mxCell id="khV0RcQAP9j46sfqYw1g-58" style="edgeStyle=orthogonalEdgeStyle;rounded=0;orthogonalLoop=1;jettySize=auto;html=1;startArrow=classic;startFill=1;" parent="1" source="062NfB-SmRiyS5ICJQca-3" target="khV0RcQAP9j46sfqYw1g-56" edge="1">
          <mxGeometry relative="1" as="geometry" />
        </mxCell>
        <mxCell id="pEv5uFr3tv_L3EquIZK9-2" style="edgeStyle=orthogonalEdgeStyle;rounded=0;orthogonalLoop=1;jettySize=auto;html=1;" parent="1" source="062NfB-SmRiyS5ICJQca-3" target="pEv5uFr3tv_L3EquIZK9-1" edge="1">
          <mxGeometry relative="1" as="geometry" />
        </mxCell>
        <mxCell id="pEv5uFr3tv_L3EquIZK9-6" style="edgeStyle=orthogonalEdgeStyle;rounded=0;orthogonalLoop=1;jettySize=auto;html=1;entryX=0.581;entryY=0;entryDx=0;entryDy=0;entryPerimeter=0;" parent="1" source="062NfB-SmRiyS5ICJQca-3" target="pEv5uFr3tv_L3EquIZK9-1" edge="1">
          <mxGeometry relative="1" as="geometry">
            <Array as="points">
              <mxPoint x="-42" y="750" />
              <mxPoint x="-310" y="750" />
            </Array>
          </mxGeometry>
        </mxCell>
        <mxCell id="062NfB-SmRiyS5ICJQca-3" value="&lt;font style=&quot;font-size: 17px;&quot;&gt;Jrag&#39;s&lt;br&gt;other modules&lt;/font&gt;" style="rounded=0;whiteSpace=wrap;html=1;" parent="1" vertex="1">
          <mxGeometry x="-157" y="550" width="230" height="130" as="geometry" />
        </mxCell>
        <mxCell id="062NfB-SmRiyS5ICJQca-4" value="Redis" style="image;sketch=0;aspect=fixed;html=1;points=[];align=center;fontSize=12;image=img/lib/mscae/Cache_Redis_Product.svg;" parent="1" vertex="1">
          <mxGeometry x="33" y="1082" width="50" height="42" as="geometry" />
        </mxCell>
        <mxCell id="khV0RcQAP9j46sfqYw1g-19" style="edgeStyle=orthogonalEdgeStyle;rounded=0;orthogonalLoop=1;jettySize=auto;html=1;" parent="1" source="khV0RcQAP9j46sfqYw1g-2" target="062NfB-SmRiyS5ICJQca-1" edge="1">
          <mxGeometry relative="1" as="geometry" />
        </mxCell>
        <mxCell id="khV0RcQAP9j46sfqYw1g-20" style="edgeStyle=orthogonalEdgeStyle;rounded=0;orthogonalLoop=1;jettySize=auto;html=1;" parent="1" source="khV0RcQAP9j46sfqYw1g-2" target="khV0RcQAP9j46sfqYw1g-3" edge="1">
          <mxGeometry relative="1" as="geometry" />
        </mxCell>
        <mxCell id="khV0RcQAP9j46sfqYw1g-39" style="edgeStyle=orthogonalEdgeStyle;rounded=0;orthogonalLoop=1;jettySize=auto;html=1;entryX=0.5;entryY=1;entryDx=0;entryDy=0;startArrow=classic;startFill=1;" parent="1" source="khV0RcQAP9j46sfqYw1g-2" target="khV0RcQAP9j46sfqYw1g-38" edge="1">
          <mxGeometry relative="1" as="geometry" />
        </mxCell>
        <mxCell id="khV0RcQAP9j46sfqYw1g-2" value="LLMClient" style="rounded=0;whiteSpace=wrap;html=1;fillColor=#d5e8d4;strokeColor=#82b366;" parent="1" vertex="1">
          <mxGeometry x="203" y="508" width="120" height="60" as="geometry" />
        </mxCell>
        <mxCell id="khV0RcQAP9j46sfqYw1g-3" value="Ollama&lt;br&gt;Chat LLM" style="sketch=0;outlineConnect=0;fontColor=#232F3E;gradientColor=none;fillColor=#01A88D;strokeColor=none;dashed=0;verticalLabelPosition=bottom;verticalAlign=top;align=center;html=1;fontSize=12;fontStyle=0;aspect=fixed;pointerEvents=1;shape=mxgraph.aws4.sagemaker_model;" parent="1" vertex="1">
          <mxGeometry x="483" y="550" width="78" height="78" as="geometry" />
        </mxCell>
        <mxCell id="khV0RcQAP9j46sfqYw1g-22" style="edgeStyle=orthogonalEdgeStyle;rounded=0;orthogonalLoop=1;jettySize=auto;html=1;" parent="1" source="khV0RcQAP9j46sfqYw1g-4" target="062NfB-SmRiyS5ICJQca-2" edge="1">
          <mxGeometry relative="1" as="geometry" />
        </mxCell>
        <mxCell id="pEv5uFr3tv_L3EquIZK9-5" style="edgeStyle=orthogonalEdgeStyle;rounded=0;orthogonalLoop=1;jettySize=auto;html=1;" parent="1" source="khV0RcQAP9j46sfqYw1g-4" target="khV0RcQAP9j46sfqYw1g-5" edge="1">
          <mxGeometry relative="1" as="geometry" />
        </mxCell>
        <mxCell id="khV0RcQAP9j46sfqYw1g-4" value="EmbeddingService" style="rounded=0;whiteSpace=wrap;html=1;fillColor=#ffe6cc;strokeColor=#d79b00;" parent="1" vertex="1">
          <mxGeometry x="203" y="780" width="120" height="60" as="geometry" />
        </mxCell>
        <mxCell id="khV0RcQAP9j46sfqYw1g-5" value="Ollama&lt;br&gt;Embedding Model" style="sketch=0;outlineConnect=0;fillColor=#FFB570;strokeColor=#d6b656;dashed=0;verticalLabelPosition=bottom;verticalAlign=top;align=center;html=1;fontSize=12;fontStyle=0;aspect=fixed;pointerEvents=1;shape=mxgraph.aws4.sagemaker_model;" parent="1" vertex="1">
          <mxGeometry x="483" y="830" width="78" height="78" as="geometry" />
        </mxCell>
        <mxCell id="khV0RcQAP9j46sfqYw1g-6" value="..." style="text;html=1;align=center;verticalAlign=middle;whiteSpace=wrap;rounded=0;fontSize=20;fontStyle=1" parent="1" vertex="1">
          <mxGeometry x="492" y="680" width="60" height="30" as="geometry" />
        </mxCell>
        <mxCell id="khV0RcQAP9j46sfqYw1g-7" value="..." style="text;html=1;align=center;verticalAlign=middle;whiteSpace=wrap;rounded=0;fontSize=20;fontStyle=1" parent="1" vertex="1">
          <mxGeometry x="492" y="950" width="60" height="30" as="geometry" />
        </mxCell>
        <mxCell id="khV0RcQAP9j46sfqYw1g-36" style="edgeStyle=orthogonalEdgeStyle;rounded=0;orthogonalLoop=1;jettySize=auto;html=1;entryX=0.5;entryY=0;entryDx=0;entryDy=0;" parent="1" source="khV0RcQAP9j46sfqYw1g-8" target="khV0RcQAP9j46sfqYw1g-9" edge="1">
          <mxGeometry relative="1" as="geometry" />
        </mxCell>
        <mxCell id="khV0RcQAP9j46sfqYw1g-37" style="edgeStyle=orthogonalEdgeStyle;rounded=0;orthogonalLoop=1;jettySize=auto;html=1;" parent="1" source="khV0RcQAP9j46sfqYw1g-8" target="062NfB-SmRiyS5ICJQca-4" edge="1">
          <mxGeometry relative="1" as="geometry" />
        </mxCell>
        <mxCell id="khV0RcQAP9j46sfqYw1g-8" value="VectorDatabaseService" style="rounded=0;whiteSpace=wrap;html=1;fillColor=#dae8fc;strokeColor=#6c8ebf;" parent="1" vertex="1">
          <mxGeometry x="-122" y="934" width="160" height="62" as="geometry" />
        </mxCell>
        <mxCell id="khV0RcQAP9j46sfqYw1g-9" value="" style="shape=image;verticalLabelPosition=bottom;labelBackgroundColor=default;verticalAlign=top;aspect=fixed;imageAspect=0;editableCssRules=.*;image=data:image/svg+xml,PHN2ZyB4bWxucz0iaHR0cDovL3d3dy53My5vcmcvMjAwMC9zdmciIGZpbGw9Im5vbmUiIHZpZXdCb3g9IjIuMzg0MTg1NzkxMDE1NjI1ZS03IC0yLjM4NDE4NTc5MTAxNTYyNWUtNyAxMDQuNDcxMDAwNjcxMzg2NzIgMjMuOTk5OTg4NTU1OTA4MjAzIiBoZWlnaHQ9IjIzLjk5OTk4ODU1NTkwODIwMyIgd2lkdGg9IjEwNC40NzEwMDA2NzEzODY3MiI+JiN4YTs8cGF0aCBmaWxsPSIjMDBCM0ZGIiBkPSJNMTYuOTEyOSAxOC4wM0MyMC4xNjY0IDE4LjAzIDIyLjgwMzkgMTUuMzM1MyAyMi44MDM5IDEyLjAxMTFDMjIuODAzOSA4LjY4Njg4IDIwLjE2NjQgNS45OTIwOSAxNi45MTI5IDUuOTkyMDlDMTMuNjU5NCA1Ljk5MjA5IDExLjAyMTkgOC42ODY4OCAxMS4wMjE5IDEyLjAxMTFDMTEuMDIxOSAxNS4zMzUzIDEzLjY1OTQgMTguMDMgMTYuOTEyOSAxOC4wM1oiLz4mI3hhOzxwYXRoIGZpbGw9IiMwMEIzRkYiIGQ9Ik03Ljk3NTAzIDMuNTE2ODRDMTIuNjQ3MiAtMS4xNzIyOCAyMC4yMjM1IC0xLjE3MjI4IDI0Ljg5NTYgMy41MTY4NEMyOS41NzUzIDguMjA1OTUgMjkuNTc1MyAxNS44MDg1IDI0Ljg5NTYgMjAuNDg5OUMyMC4yMjM1IDI1LjE3MTMgMTIuNjQ3MiAyNS4xNzEzIDcuOTc1MDMgMjAuNDgyMkwwLjMzODU2MyAxMi44MTgyQy0wLjExMjg1NCAxMi4zNjQ3IC0wLjExMjg1NCAxMS42MzQ0IDAuMzM4NTYzIDExLjE4MDhMNy45NzUwMyAzLjUxNjg0Wk0xMC42NjEgMTguMjM3NkMxNC4wOTE3IDIxLjY4MTQgMTkuNjU5MiAyMS42ODE0IDIzLjA5IDE4LjIzNzZDMjYuNTIwNyAxNC43OTM4IDI2LjUyMDcgOS4yMTI5NiAyMy4wODI0IDUuNzY5MTVDMTkuNjUxNyAyLjMyNTM0IDE0LjA4NDIgMi4zMjUzNCAxMC42NTM0IDUuNzY5MTVMNS4wNDA4MiAxMS4zOTYxQzQuNzA5NzggMTEuNzM0MyA0LjcwOTc4IDEyLjI3MjQgNS4wNDA4MiAxMi42MDNMMTAuNjYxIDE4LjIzNzZaIiBjbGlwLXJ1bGU9ImV2ZW5vZGQiIGZpbGwtcnVsZT0iZXZlbm9kZCIvPiYjeGE7PHBhdGggZmlsbD0iIzAwQjNGRiIgZD0iTTMxLjUzODUgNy43NTIzNkwzNC45MDE1IDExLjE4ODVDMzUuMzQ1NCAxMS42NDIgMzUuMzQ1NCAxMi4zNzIzIDM0LjkwMTUgMTIuODMzNUwzMS41Mzg1IDE2LjI2OTZDMzEuMzQyOCAxNi40Njk1IDMxLjAwNDMgMTYuMjg1IDMxLjA2NDUgMTYuMDAwNkMzMS42NDM4IDEzLjM3OTMgMzEuNjQzOCAxMC42NDI3IDMxLjA2NDUgOC4wMjE0MUMzMC45OTY4IDcuNzM2OTkgMzEuMzM1MyA3LjU0NDgxIDMxLjUzODUgNy43NTIzNloiLz4mI3hhOzxwYXRoIGZpbGw9IiMwMEIzRkYiIGQ9Ik01OS45NjQ1IDQuODI3NzZDNTkuOTY0NSA0LjM0MjEzIDYwLjExNTcgMy45MjI3MiA2MC40Mzk4IDMuNTkxNkM2MC43NjM4IDMuMjYwNDkgNjEuMTUyNyAzLjA4Mzg5IDYxLjY0OTYgMy4wODM4OUM2Mi4xMjUgMy4wODM4OSA2Mi41MzU0IDMuMjYwNDkgNjIuODU5NSAzLjU5MTZDNjMuMTgzNiAzLjkyMjcyIDYzLjM1NjQgNC4zNDIxMyA2My4zNTY0IDQuODI3NzZDNjMuMzU2NCA1LjMxMzQgNjMuMTgzNiA1LjczMjgyIDYyLjg1OTUgNi4wNjM5M0M2Mi41MzU0IDYuMzk1MDUgNjIuMTI1IDYuNTQ5NTcgNjEuNjQ5NiA2LjU0OTU3QzYxLjE3NDMgNi41NDk1NyA2MC43NjM4IDYuMzk1MDUgNjAuNDM5OCA2LjA2MzkzQzYwLjEzNzMgNS43MTA3NCA1OS45NjQ1IDUuMzEzNCA1OS45NjQ1IDQuODI3NzZaIi8+JiN4YTs8cGF0aCBmaWxsPSIjMDBCM0ZGIiBkPSJNNjAuMTM3MyA4Ljg0NTNDNjAuMTM3MyA4LjMzNzU5IDYwLjI4ODUgNy45ODQ0IDYwLjU2OTQgNy43ODU3M0M2MC44NTAzIDcuNTg3MDYgNjEuMjM5MiA3LjQ3NjY5IDYxLjcxNDUgNy40NzY2OUM2Mi4wNjAxIDcuNDc2NjkgNjIuMzYyNiA3LjUyMDg0IDYyLjY0MzUgNy42MDkxNEM2Mi45MjQzIDcuNjk3NDMgNjMuMDk3MiA3Ljc0MTU4IDYzLjE4MzYgNy43NjM2NlYxNy4zNDM5SDYwLjEzNzNWOC44NDUzWiIvPiYjeGE7PHBhdGggZmlsbD0iIzAwQjNGRiIgZD0iTTQxLjk0NTkgMTEuMDA4NEM0MS45NDU5IDEwLjM2ODMgNDIuMDUzOSA5LjgxNjQgNDIuMjcgOS4zNTI4NEM0Mi40ODYgOC44ODkyOCA0Mi43ODg1IDguNDkxOTQgNDMuMTc3NCA4LjE2MDgzQzQzLjU2NjMgNy44Mjk3MSA0NC4wMiA3LjU4Njg5IDQ0LjUzODUgNy40MzIzN0M0NS4wNTcgNy4yNzc4NSA0NS42NDAzIDcuMTg5NTUgNDYuMjQ1MyA3LjE4OTU1QzQ3LjAwMTUgNy4xODk1NSA0Ny42NzEyIDcuMzIyIDQ4LjI3NjIgNy41ODY4OUM0OC44NTk1IDcuODUxNzggNDkuMzU2NCA4LjIwNDk4IDQ5LjcyMzcgOC42Njg1NEM1MC4wOTEgOC4yMDQ5OCA1MC41NjYzIDcuODUxNzggNTEuMTQ5NiA3LjU4Njg5QzUxLjczMyA3LjMyMiA1Mi40MDI3IDcuMTg5NTUgNTMuMTU4OSA3LjE4OTU1QzUzLjc2MzggNy4xODk1NSA1NC4zMjU1IDcuMjc3ODUgNTQuODQ0MSA3LjQzMjM3QzU1LjM2MjYgNy41ODY4OSA1NS44MTYzIDcuODI5NzEgNTYuMjA1MiA4LjE2MDgzQzU2LjU5NDEgOC40OTE5NCA1Ni44OTY1IDguODg5MjggNTcuMTEyNiA5LjM1Mjg0QzU3LjMyODYgOS44MTY0IDU3LjQzNjcgMTAuMzY4MyA1Ny40MzY3IDExLjAwODRWMTcuMzIxN0g1NC4zOTA0VjExLjg5MTRDNTQuMzkwNCAxMS4yMjkyIDU0LjI2MDcgMTAuNzY1NiA1NC4wMDE1IDEwLjQ3ODZDNTMuNzQyMiAxMC4xOTE3IDUzLjM3NDkgMTAuMDU5MiA1Mi44NzggMTAuMDU5MkM1Mi4zODExIDEwLjA1OTIgNTEuOTkyMiAxMC4yMzU4IDUxLjY2ODEgMTAuNTY2OUM1MS4zNjU3IDEwLjg5OCA1MS4yMTQ0IDExLjQyNzggNTEuMjE0NCAxMi4xNzg0VjE3LjM0MzhINDguMTY4MVYxMi4xNzg0QzQ4LjE2ODEgMTEuNDQ5OSA0OC4wMTY5IDEwLjkyMDEgNDcuNzE0NCAxMC41NjY5QzQ3LjQxMiAxMC4yMzU4IDQ3LjAyMzEgMTAuMDU5MiA0Ni41MjYyIDEwLjA1OTJDNDYuMDUwOCAxMC4wNTkyIDQ1LjY2MiAxMC4xOTE3IDQ1LjQwMjcgMTAuNDc4NkM0NS4xMjE4IDEwLjc2NTYgNDQuOTkyMiAxMS4yMjkyIDQ0Ljk5MjIgMTEuODkxNFYxNy4zMjE3SDQxLjk0NTlWMTEuMDA4NFoiLz4mI3hhOzxwYXRoIGZpbGw9IiMwMEIzRkYiIGQ9Ik02Ni40MjQ1IDMuMzkyOTRDNjYuMTQzNiAzLjU5MTYgNjUuOTkyNCAzLjk0NDc5IDY1Ljk5MjQgNC40NTI1VjE3LjMyMThINjkuMDM4N1YzLjM3MDg2QzY4Ljk1MjMgMy4zNDg3OCA2OC43Nzk0IDMuMzA0NjMgNjguNDk4NiAzLjIxNjM0QzY4LjIxNzcgMy4xMjgwNCA2Ny45MTUyIDMuMDgzODkgNjcuNTY5NSAzLjA4Mzg5QzY3LjA5NDIgMy4wODM4OSA2Ni43MDU0IDMuMTk0MjcgNjYuNDI0NSAzLjM5Mjk0WiIvPiYjeGE7PHBhdGggZmlsbD0iIzAwQjNGRiIgZD0iTTc0LjYxMjIgMTcuMzIxOEM3NC4yMjM0IDE2LjYxNTQgNzMuODM0NSAxNS44ODcgNzMuNDY3MiAxNS4xMzY1QzczLjEgMTQuMzg2MiA3Mi43NTQxIDEzLjY3OTQgNzIuNDUxOCAxMy4wMzk0QzcyLjE0OTMgMTIuMzk5MiA3MS44OSAxMS44MjUzIDcxLjY5NTYgMTEuMzgzOEM3MS41MDExIDEwLjkyMDMgNzEuMzcxNSAxMC42MzMzIDcxLjMwNjcgMTAuNTAwOEM3MS4xOTg3IDEwLjIzNiA3MS4wOTA2IDkuOTQ4OTkgNzAuOTgyNiA5LjYzOTk1QzcwLjg1MyA5LjMwODgzIDcwLjgwOTggOS4wMjE4NyA3MC44MDk4IDguNzc5MDVDNzAuODA5OCA4LjQyNTg2IDcwLjkzOTQgOC4xMTY4MSA3MS4xOTg3IDcuODUxOTJDNzEuNDU3OSA3LjYwOTEgNzEuODI1MiA3LjQ3NjY2IDcyLjM0MzcgNy40NzY2NkM3Mi43NTQyIDcuNDc2NjYgNzMuMDc4MyA3LjUyMDgxIDczLjMzNzYgNy42MDkxMUM3My41OTYzIDcuNjk3MjQgNzMuNzI2NSA3Ljc0MTU4IDczLjc2OTcgNy43NjM2M0M3My45ODU3IDguNDAzNzkgNzQuMjAxOCA5LjA0Mzk0IDc0LjQ2MSA5LjY4NDFDNzQuNjUxOSAxMC4xOTgyIDc0Ljg0MjcgMTAuNjgzOCA3NS4wMjI0IDExLjE0MDlMNzUuMDIzMSAxMS4xNDI4Qzc1LjA2NjkgMTEuMjU0MyA3NS4xMTAxIDExLjM2NCA3NS4xNTI0IDExLjQ3MjFDNzUuMzY4NCAxMi4wMjQgNzUuNTYyOSAxMi41MDk2IDc1Ljc1NzMgMTIuOTI5Qzc1LjkzMDEgMTMuMzQ4NCA3Ni4wNTk4IDEzLjYzNTQgNzYuMTQ2MiAxMy44MTJDNzYuMTk0MiAxMy43MTM5IDc2LjI0ODkgMTMuNTgxNyA3Ni4zMTc3IDEzLjQxNTRDNzYuMzcyNiAxMy4yODI2IDc2LjQzNjggMTMuMTI3MyA3Ni41MTM1IDEyLjk1MTFDNzYuNjI4NiAxMi42ODYzIDc2Ljc0MzggMTIuMzkyMiA3Ni44NjU0IDEyLjA4MTdDNzYuOTI2MiAxMS45MjY0IDc2Ljk4ODggMTEuNzY2MyA3Ny4wNTM2IDExLjYwNDZDNzcuMTUwOCAxMS4zNjE4IDc3LjI0OCAxMS4xMTM1IDc3LjM0NTIgMTAuODY1MkM3Ny40NDI1IDEwLjYxNjkgNzcuNTM5NyAxMC4zNjg0IDc3LjYzNjkgMTAuMTI1NkM3Ny44MzE0IDkuNjM5OTUgNzguMDA0MiA5LjE5ODQ2IDc4LjEzMzkgOC44NjczNUM3OC4xNTMgOC44MjMzMSA3OC4xNzExIDguNzgwMzUgNzguMTg4OSA4LjczODI0Qzc4LjI1MTEgOC41OTAzOCA3OC4zMDkgOC40NTI5NCA3OC4zOTMxIDguMzE1NDlDNzguNDc5NSA4LjEzODg5IDc4LjYwOTIgOC4wMDY0NSA3OC43Mzg4IDcuODc0Qzc4Ljg2ODQgNy43NDE1NSA3OS4wNDEzIDcuNjUzMjUgNzkuMjE0MSA3LjU4NzAzQzc5LjQwODYgNy41MjA4MSA3OS42NDYyIDcuNDk4NzMgNzkuOTA1NSA3LjQ5ODczQzgwLjE2NDcgNy40OTg3MyA4MC4zODA4IDcuNTIwODEgODAuNTk2OCA3LjU4NzAzQzgwLjc5MTMgNy42MzExOCA4MC45ODU3IDcuNjk3NDEgODEuMTM2OSA3Ljc2MzYzQzgxLjI4ODIgNy44Mjk4NSA4MS40MTc4IDcuODk2MDcgODEuNTA0MiA3Ljk0MDIyQzgxLjU1MzkgNy45NzgyNSA4MS41OTY0IDguMDAxNzIgODEuNjI3NiA4LjAxODk5QzgxLjY1MDggOC4wMzE3OCA4MS42Njc5IDguMDQxMiA4MS42NzcxIDguMDUwNTlDODEuNjMzOSA4LjI5MzQxIDgxLjUwNDIgOC42MjQ1MyA4MS4zMDk4IDkuMTEwMTdDODEuMjM5MyA5LjI3ODI0IDgxLjE2NTkgOS40NTc5MyA4MS4wODg3IDkuNjQ3MTJMODEuMDg3NyA5LjY0OTY5QzgwLjk1MjIgOS45ODE1OCA4MC44MDQ5IDEwLjM0MjcgODAuNjQgMTAuNzIxNkM4MC4zODA4IDExLjMxNzYgODAuMDk5OSAxMS45NTc4IDc5Ljc5NzQgMTIuNjJDNzkuNjU0NiAxMi45MzI4IDc5LjUxMTcgMTMuMjQwNyA3OS4zNzExIDEzLjU0MzdMNzkuMzY5NyAxMy41NDY1Qzc5LjIxMzMgMTMuODgzNyA3OS4wNTkzIDE0LjIxNTUgNzguOTExNiAxNC41NDA1Qzc4LjYzMDggMTUuMTU4NSA3OC4zNDk5IDE1LjcxMDQgNzguMDkwNiAxNi4yMTgxQzc3LjgzMTQgMTYuNzAzNyA3Ny42MzcgMTcuMTAxIDc3LjUwNzQgMTcuMzY1OUw3NC42MTIyIDE3LjM2NlYxNy4zMjE4WiIvPiYjeGE7PHBhdGggZmlsbD0iIzAwQjNGRiIgZD0iTTg4LjA3MjQgMTQuNzM5MUM4Ni44ODQxIDE0LjczOTEgODYuMzAwOCAxNC4wNzY5IDg2LjMwMDggMTIuNzMwNFY3Ljc2MzYzQzg2LjIxNDQgNy43NDE1NSA4Ni4wNDE1IDcuNjk3NDEgODUuNzYwNyA3LjYwOTExQzg1LjQ3OTggNy41MjA4MSA4NS4xNzczIDcuNDc2NjYgODQuODMxNyA3LjQ3NjY2Qzg0LjM1NjQgNy40NzY2NiA4My45Njc1IDcuNTg3MDMgODMuNjg2NiA3Ljc4NTdDODMuNDA1NyA3Ljk4NDM3IDgzLjI1NDUgOC4zMzc1NiA4My4yNTQ1IDguODQ1MjdWMTMuMzA0M0M4My4yNTQ1IDE0LjAxMDcgODMuMzg0MSAxNC42NTA4IDgzLjYyMTggMTUuMTgwNkM4My44ODEgMTUuNzEwNCA4NC4yMDUxIDE2LjE1MTkgODQuNjM3MiAxNi41MDUxQzg1LjA2OTMgMTYuODU4MyA4NS41ODc4IDE3LjEyMzIgODYuMTcxMiAxNy4yOTk4Qzg2Ljc1NDUgMTcuNDc2MyA4Ny4zODExIDE3LjU2NDYgODguMDcyNCAxNy41NjQ2Qzg4Ljc0MjIgMTcuNTY0NiA4OS4zOTAzIDE3LjQ3NjMgODkuOTczNiAxNy4yOTk4QzkwLjU3ODYgMTcuMTIzMiA5MS4wNzU1IDE2Ljg1ODMgOTEuNTA3NiAxNi41MDUxQzkxLjkzOTcgMTYuMTUxOSA5Mi4yODU0IDE1LjcxMDQgOTIuNTIzIDE1LjE4MDZDOTIuNzYwNyAxNC42NTA4IDkyLjg5MDMgMTQuMDMyNyA5Mi44OTAzIDEzLjMwNDNWNy43NjM2M0M5Mi44MDM5IDcuNzQxNTUgOTIuNjMxMSA3LjY5NzQxIDkyLjM1MDIgNy42MDkxMUM5Mi4wNjkzIDcuNTIwODEgOTEuNzY2OSA3LjQ3NjY2IDkxLjQyMTIgNy40NzY2NkM5MC45NDU5IDcuNDc2NjYgOTAuNTU3IDcuNTg3MDMgOTAuMjc2MSA3Ljc4NTdDODkuOTk1MiA3Ljk4NDM3IDg5Ljg0NCA4LjMzNzU2IDg5Ljg0NCA4Ljg0NTI3VjEyLjczMDRDODkuODQ0IDE0LjA3NjkgODkuMjYwNyAxNC43MzkxIDg4LjA3MjQgMTQuNzM5MVoiLz4mI3hhOzxwYXRoIGZpbGw9IiMwMEIzRkYiIGQ9Ik05NS45OCAxNC4zMTk2Qzk2LjA4OCAxNC40MDc5IDk2LjIzOTIgMTQuNDk2MiA5Ni40NzY5IDE0LjYwNjVDOTYuNzE0NiAxNC43MTY5IDk2Ljk5NTQgMTQuODI3MyA5Ny4zMTk1IDE0LjkxNTZDOTcuNjQzNiAxNS4wMDM5IDk4LjAxMDggMTUuMDkyMiA5OC40MjEzIDE1LjE1ODRDOTguODMxOCAxNS4yMjQ2IDk5LjI2MzkgMTUuMjY4OCA5OS43MTc2IDE1LjI2ODhDMTAwLjIzNiAxNS4yNjg4IDEwMC42MjUgMTUuMjI0NiAxMDAuODg0IDE1LjExNDJDMTAxLjE0NCAxNS4wMjYgMTAxLjI3MyAxNC44NDk0IDEwMS4yNzMgMTQuNjA2NUMxMDEuMjczIDE0LjM0MTYgMTAxLjE2NSAxNC4xNjUxIDEwMC45NDkgMTQuMDc2OEMxMDAuNzMzIDEzLjk4ODUgMTAwLjM4NyAxMy45MDAyIDk5LjkxMjEgMTMuODMzOUw5OC45MTgzIDEzLjcyMzZDOTguNDIxMyAxMy42NTczIDk3Ljk0NiAxMy41NjkgOTcuNDkyMyAxMy40MzY2Qzk3LjAzODYgMTMuMzA0MiA5Ni42MjgxIDEzLjEyNzYgOTYuMjgyNSAxMi44ODQ3Qzk1LjkzNjggMTIuNjQxOSA5NS42NTU5IDEyLjMzMjkgOTUuNDYxNSAxMS45NTc2Qzk1LjI2NyAxMS41ODIzIDk1LjE1OSAxMS4xMTg4IDk1LjE1OSAxMC41NDQ5Qzk1LjE1OSAxMC4wNTkyIDk1LjI0NTQgOS42MTc3NCA5NS40MTgzIDkuMjIwNEM5NS41OTExIDguODIzMDYgOTUuODUwNCA4LjQ2OTg3IDk2LjIxNzYgOC4xNjA4M0M5Ni41ODQ5IDcuODUxNzkgOTcuMDYwMiA3LjYwODk3IDk3LjYyMiA3LjQ1NDQ1Qzk4LjE4MzcgNy4yNzc4NSA5OC44NzUgNy4xODk1NSA5OS42NTI4IDcuMTg5NTVDMTAwLjQ1MiA3LjE4OTU1IDEwMS4xMjIgNy4yMzM3IDEwMS43MDUgNy4zNDQwN0MxMDIuMjg5IDcuNDU0NDQgMTAyLjc2NCA3LjYwODk3IDEwMy4xOTYgNy44Mjk3MUMxMDMuNDM0IDcuOTYyMTYgMTAzLjYyOCA4LjExNjY3IDEwMy43NzkgOC4yOTMyN0MxMDMuOTMxIDguNDY5ODYgMTAzLjk5NSA4LjcxMjY5IDEwMy45OTUgOC45Nzc1OEMxMDMuOTk1IDkuMTc2MjUgMTAzLjk1MiA5LjM3NDkyIDEwMy44NjYgOS41Mjk0NEMxMDMuNzc5IDkuNjgzOTYgMTAzLjY5MyA5LjgzODQ3IDEwMy41ODUgOS45NDg4NUMxMDMuNDc3IDEwLjA1OTIgMTAzLjM2OSAxMC4xNDc1IDEwMy4yODIgMTAuMjEzN0MxMDMuMTk2IDEwLjI4IDEwMy4xMzEgMTAuMzI0MSAxMDMuMTEgMTAuMzI0MUMxMDMuMDgzIDEwLjI5NjggMTAzLjAzMSAxMC4yNjExIDEwMi45NiAxMC4yMTE3QzEwMi45MTYgMTAuMTgxMiAxMDIuODY1IDEwLjE0NTUgMTAyLjgwNyAxMC4xMDM0QzEwMi42MzQgOS45OTI5OSAxMDIuNDE4IDkuOTA0NyAxMDIuMTE2IDkuNzk0MzNDMTAxLjgzNSA5LjcwNjAzIDEwMS40ODkgOS42MTc3MyAxMDEuMSA5LjUyOTQ0QzEwMC43MTEgOS40NDExNCAxMDAuMjU4IDkuNDE5MDcgOTkuNzM5MyA5LjQxOTA3Qzk5LjE3NzUgOS40MTkwNyA5OC43NjcgOS40ODUyOSA5OC41NTEgOS42MTc3NEM5OC4zMzQ5IDkuNzUwMTggOTguMjI2OSA5LjkyNjc3IDk4LjIyNjkgMTAuMTQ3NUM5OC4yMjY5IDEwLjM2ODMgOTguMzM0OSAxMC41MjI4IDk4LjUyOTQgMTAuNjExMUM5OC43MjM4IDEwLjY5OTQgOTkuMDI2MyAxMC43ODc3IDk5LjQzNjggMTAuODUzOUwxMDEuMTY1IDExLjA5NjdDMTAxLjU5NyAxMS4xNjI5IDEwMi4wMDggMTEuMjUxMiAxMDIuMzk3IDExLjM4MzdDMTAyLjc4NiAxMS41MTYxIDEwMy4xNTMgMTEuNjkyNyAxMDMuNDU1IDExLjkxMzVDMTAzLjc1OCAxMi4xNTYzIDEwNC4wMTcgMTIuNDQzMyAxMDQuMTkgMTIuNzk2NEMxMDQuMzYzIDEzLjE0OTYgMTA0LjQ3MSAxMy41OTExIDEwNC40NzEgMTQuMTIwOUMxMDQuNDcxIDE1LjIwMjUgMTA0LjA2IDE2LjA0MTQgMTAzLjI2MSAxNi42NTk1QzEwMi40NjEgMTcuMjU1NSAxMDEuMzM4IDE3LjU2NDUgOTkuOTEyMSAxNy41NjQ1Qzk5LjE3NzUgMTcuNTY0NSA5OC41MDc4IDE3LjUyMDQgOTcuOTI0NCAxNy40MUM5Ny4zNDExIDE3LjI5OTYgOTYuODY1OCAxNy4xODkyIDk2LjQzMzcgMTcuMDU2OEM5Ni4wMjMyIDE2LjkyNDMgOTUuNjc3NSAxNi43Njk4IDk1LjQxODMgMTYuNjM3NEM5NS4yMzE4IDE2LjUyNjMgOTUuMDkwMSAxNi40MzggOTQuOTg1IDE2LjM3MjVDOTQuOTQzOSAxNi4zNDcgOTQuOTA4NSAxNi4zMjQ5IDk0Ljg3ODEgMTYuMzA2M0w5NS45OCAxNC4zMTk2WiIvPiYjeGE7PC9zdmc+;" parent="1" vertex="1">
          <mxGeometry x="-197" y="1082" width="104" height="24" as="geometry" />
        </mxCell>
        <mxCell id="khV0RcQAP9j46sfqYw1g-12" value="SQLite" style="verticalLabelPosition=bottom;html=1;verticalAlign=top;align=center;strokeColor=none;fillColor=#00BEF2;shape=mxgraph.azure.sql_database;" parent="1" vertex="1">
          <mxGeometry x="-590" y="510" width="37.5" height="50" as="geometry" />
        </mxCell>
        <mxCell id="khV0RcQAP9j46sfqYw1g-13" value="MySQL" style="verticalLabelPosition=bottom;html=1;verticalAlign=top;align=center;strokeColor=none;fillColor=#00BEF2;shape=mxgraph.azure.mysql_database;" parent="1" vertex="1">
          <mxGeometry x="-590" y="660" width="37.5" height="50" as="geometry" />
        </mxCell>
        <mxCell id="khV0RcQAP9j46sfqYw1g-26" value="&lt;span style=&quot;font-size: 17px;&quot;&gt;DAO&lt;/span&gt;" style="rounded=0;whiteSpace=wrap;html=1;fillColor=#f8cecc;strokeColor=#b85450;" parent="1" vertex="1">
          <mxGeometry x="-407" y="575" width="170" height="80" as="geometry" />
        </mxCell>
        <mxCell id="khV0RcQAP9j46sfqYw1g-28" style="edgeStyle=orthogonalEdgeStyle;rounded=0;orthogonalLoop=1;jettySize=auto;html=1;entryX=1;entryY=0.5;entryDx=0;entryDy=0;entryPerimeter=0;" parent="1" source="khV0RcQAP9j46sfqYw1g-26" target="khV0RcQAP9j46sfqYw1g-12" edge="1">
          <mxGeometry relative="1" as="geometry" />
        </mxCell>
        <mxCell id="khV0RcQAP9j46sfqYw1g-29" style="edgeStyle=orthogonalEdgeStyle;rounded=0;orthogonalLoop=1;jettySize=auto;html=1;entryX=1;entryY=0.5;entryDx=0;entryDy=0;entryPerimeter=0;" parent="1" source="khV0RcQAP9j46sfqYw1g-26" target="khV0RcQAP9j46sfqYw1g-13" edge="1">
          <mxGeometry relative="1" as="geometry" />
        </mxCell>
        <mxCell id="khV0RcQAP9j46sfqYw1g-31" style="edgeStyle=orthogonalEdgeStyle;rounded=0;orthogonalLoop=1;jettySize=auto;html=1;entryX=0.75;entryY=1;entryDx=0;entryDy=0;" parent="1" source="khV0RcQAP9j46sfqYw1g-30" target="khV0RcQAP9j46sfqYw1g-26" edge="1">
          <mxGeometry relative="1" as="geometry" />
        </mxCell>
        <mxCell id="khV0RcQAP9j46sfqYw1g-33" style="edgeStyle=orthogonalEdgeStyle;rounded=0;orthogonalLoop=1;jettySize=auto;html=1;entryX=0;entryY=0.5;entryDx=0;entryDy=0;" parent="1" source="khV0RcQAP9j46sfqYw1g-30" target="khV0RcQAP9j46sfqYw1g-4" edge="1">
          <mxGeometry relative="1" as="geometry" />
        </mxCell>
        <mxCell id="khV0RcQAP9j46sfqYw1g-34" style="edgeStyle=orthogonalEdgeStyle;rounded=0;orthogonalLoop=1;jettySize=auto;html=1;entryX=0.5;entryY=0;entryDx=0;entryDy=0;" parent="1" source="khV0RcQAP9j46sfqYw1g-30" target="khV0RcQAP9j46sfqYw1g-8" edge="1">
          <mxGeometry relative="1" as="geometry" />
        </mxCell>
        <mxCell id="khV0RcQAP9j46sfqYw1g-30" value="Retriever" style="rounded=0;whiteSpace=wrap;html=1;fillColor=#f0a30a;strokeColor=#BD7000;fontColor=#000000;" parent="1" vertex="1">
          <mxGeometry x="-122" y="779" width="160" height="62" as="geometry" />
        </mxCell>
        <mxCell id="khV0RcQAP9j46sfqYw1g-53" style="edgeStyle=orthogonalEdgeStyle;rounded=0;orthogonalLoop=1;jettySize=auto;html=1;entryX=0.5;entryY=1;entryDx=0;entryDy=0;" parent="1" source="khV0RcQAP9j46sfqYw1g-38" target="khV0RcQAP9j46sfqYw1g-42" edge="1">
          <mxGeometry relative="1" as="geometry" />
        </mxCell>
        <mxCell id="khV0RcQAP9j46sfqYw1g-54" style="edgeStyle=orthogonalEdgeStyle;rounded=0;orthogonalLoop=1;jettySize=auto;html=1;" parent="1" source="khV0RcQAP9j46sfqYw1g-38" target="khV0RcQAP9j46sfqYw1g-40" edge="1">
          <mxGeometry relative="1" as="geometry" />
        </mxCell>
        <mxCell id="khV0RcQAP9j46sfqYw1g-38" value="FunctionCallingService" style="rounded=0;whiteSpace=wrap;html=1;fillColor=#b0e3e6;strokeColor=#0e8088;" parent="1" vertex="1">
          <mxGeometry x="193" y="370" width="140" height="60" as="geometry" />
        </mxCell>
        <mxCell id="khV0RcQAP9j46sfqYw1g-40" value="Tools" style="rounded=0;whiteSpace=wrap;html=1;fillColor=#fad9d5;strokeColor=#ae4132;" parent="1" vertex="1">
          <mxGeometry x="333" y="220" width="140" height="60" as="geometry" />
        </mxCell>
        <mxCell id="khV0RcQAP9j46sfqYw1g-51" style="edgeStyle=orthogonalEdgeStyle;rounded=0;orthogonalLoop=1;jettySize=auto;html=1;entryX=0.5;entryY=1;entryDx=0;entryDy=0;" parent="1" source="khV0RcQAP9j46sfqYw1g-42" target="BBPGk58HTuIqCQRt4ctL-1" edge="1">
          <mxGeometry relative="1" as="geometry">
            <mxPoint x="183" y="125.28999999999996" as="targetPoint" />
          </mxGeometry>
        </mxCell>
        <mxCell id="khV0RcQAP9j46sfqYw1g-52" style="edgeStyle=orthogonalEdgeStyle;rounded=0;orthogonalLoop=1;jettySize=auto;html=1;entryX=0.5;entryY=1;entryDx=0;entryDy=0;" parent="1" source="khV0RcQAP9j46sfqYw1g-42" target="BBPGk58HTuIqCQRt4ctL-2" edge="1">
          <mxGeometry relative="1" as="geometry">
            <mxPoint x="263" y="125.28999999999996" as="targetPoint" />
          </mxGeometry>
        </mxCell>
        <mxCell id="khV0RcQAP9j46sfqYw1g-42" value="MCP Client" style="rounded=0;whiteSpace=wrap;html=1;fillColor=#d0cee2;strokeColor=#56517e;" parent="1" vertex="1">
          <mxGeometry x="163" y="220" width="120" height="60" as="geometry" />
        </mxCell>
        <mxCell id="khV0RcQAP9j46sfqYw1g-49" value="..." style="text;html=1;align=center;verticalAlign=middle;whiteSpace=wrap;rounded=0;fontSize=20;fontStyle=1" parent="1" vertex="1">
          <mxGeometry x="300" y="90.00000000000001" width="60" height="30" as="geometry" />
        </mxCell>
        <mxCell id="khV0RcQAP9j46sfqYw1g-56" value="Web UI" style="dashed=0;outlineConnect=0;html=1;align=center;labelPosition=center;verticalLabelPosition=bottom;verticalAlign=top;shape=mxgraph.webicons.chrome;gradientColor=#DFDEDE" parent="1" vertex="1">
          <mxGeometry x="-93.6" y="270" width="103.2" height="104" as="geometry" />
        </mxCell>
        <mxCell id="BBPGk58HTuIqCQRt4ctL-1" value="MCP Server 1" style="shape=image;verticalLabelPosition=bottom;labelBackgroundColor=default;verticalAlign=middle;aspect=fixed;imageAspect=0;image=data:image/png,iVBORw0KGgoAAAANSUhEUgAAABwAAAAcCAMAAABF0y+mAAAAPFBMVEVHcEwAAAAAAAAAAAAAAAAnJyd3d3ddXV3Dw8P///+Kiorb29uZmZn29vYPDw/t7e2lpaUyMjJPT0/W1tZcBe60AAAABXRSTlMALsj/x4sesyUAAACzSURBVHgBddOFAcQgEARAePRw6b/WuLAfT4DBhTH+E6+X5ItBitLmjnAG5Swtl7vKstE8eRci6TPOwOzyTRQBB8tFWAIcjMKCxSXA04qodPWKvVgxOpI+Ec1tvcoXorWt4RP/jYzoJ76Yob6jWs2CLZ869JY8mhE3rn2IYAOuVQc0mAQnhLkMsRLFDDagSDZHW8EWhAsMEe0fPTXxiZ30N1YCZfJfh23NuEAdSq5bXn4ehxk+XxCYu+Sq9wAAAABJRU5ErkJggg==;" parent="1" vertex="1">
          <mxGeometry x="159.5" y="90" width="40" height="40" as="geometry" />
        </mxCell>
        <mxCell id="BBPGk58HTuIqCQRt4ctL-2" value="MCP Server 2" style="shape=image;verticalLabelPosition=bottom;labelBackgroundColor=default;verticalAlign=middle;aspect=fixed;imageAspect=0;image=data:image/png,iVBORw0KGgoAAAANSUhEUgAAABwAAAAcCAMAAABF0y+mAAAAPFBMVEVHcEwAAAAAAAAAAAAAAAAnJyd3d3ddXV3Dw8P///+Kiorb29uZmZn29vYPDw/t7e2lpaUyMjJPT0/W1tZcBe60AAAABXRSTlMALsj/x4sesyUAAACzSURBVHgBddOFAcQgEARAePRw6b/WuLAfT4DBhTH+E6+X5ItBitLmjnAG5Swtl7vKstE8eRci6TPOwOzyTRQBB8tFWAIcjMKCxSXA04qodPWKvVgxOpI+Ec1tvcoXorWt4RP/jYzoJ76Yob6jWs2CLZ869JY8mhE3rn2IYAOuVQc0mAQnhLkMsRLFDDagSDZHW8EWhAsMEe0fPTXxiZ30N1YCZfJfh23NuEAdSq5bXn4ehxk+XxCYu+Sq9wAAAABJRU5ErkJggg==;" parent="1" vertex="1">
          <mxGeometry x="246.5" y="90" width="40" height="40" as="geometry" />
        </mxCell>
        <mxCell id="pEv5uFr3tv_L3EquIZK9-3" style="edgeStyle=orthogonalEdgeStyle;rounded=0;orthogonalLoop=1;jettySize=auto;html=1;entryX=0.5;entryY=1;entryDx=0;entryDy=0;exitX=1;exitY=0.5;exitDx=0;exitDy=0;" parent="1" source="pEv5uFr3tv_L3EquIZK9-1" target="khV0RcQAP9j46sfqYw1g-4" edge="1">
          <mxGeometry relative="1" as="geometry">
            <mxPoint x="-275.6199999999999" y="887.25" as="sourcePoint" />
            <mxPoint x="199.99999999999977" y="850.75" as="targetPoint" />
          </mxGeometry>
        </mxCell>
        <mxCell id="pEv5uFr3tv_L3EquIZK9-4" style="edgeStyle=orthogonalEdgeStyle;rounded=0;orthogonalLoop=1;jettySize=auto;html=1;entryX=0;entryY=0.5;entryDx=0;entryDy=0;exitX=0.5;exitY=1;exitDx=0;exitDy=0;" parent="1" source="pEv5uFr3tv_L3EquIZK9-1" target="khV0RcQAP9j46sfqYw1g-8" edge="1">
          <mxGeometry relative="1" as="geometry" />
        </mxCell>
        <mxCell id="pEv5uFr3tv_L3EquIZK9-1" value="KnowledgeService" style="rounded=0;whiteSpace=wrap;html=1;fillColor=#b0e3e6;strokeColor=#0e8088;" parent="1" vertex="1">
          <mxGeometry x="-407" y="830" width="167" height="65" as="geometry" />
        </mxCell>
      </root>
    </mxGraphModel>
  </diagram>
</mxfile>
